<svg width="1200" height="320" viewBox="0 0 1200 320" fill="none" xmlns="http://www.w3.org/2000/svg" aria-hidden="true">
<g><path d="M0 30.0 L10.0 32.5 L20.0 34.8 L30.0 37.0 L40.0 38.8 L50.0 40.4 L60.0 41.6 L70.0 42.3 L80.0 42.7 L90.0 42.6 L100.0 42.2 L110.0 41.3 L120.0 40.1 L130.0 38.7 L140.0 36.9 L150.0 35.0 L160.0 33.0 L170.0 30.9 L180.0 28.9 L190.0 26.9 L200.0 25.1 L210.0 23.5 L220.0 22.2 L230.0 21.1 L240.0 20.4 L250.0 20.0 L260.0 19.9 L270.0 20.1 L280.0 20.7 L290.0 21.6 L300.0 22.6 L310.0 23.9 L320.0 25.4 L330.0 27.0 L340.0 28.6 L350.0 30.1 L360.0 31.7 L370.0 33.1 L380.0 34.4 L390.0 35.5 L400.0 36.4 L410.0 37.0 L420.0 37.4 L430.0 37.5 L440.0 37.4 L450.0 37.1 L460.0 36.5 L470.0 35.7 L480.0 34.8 L490.0 33.8 L500.0 32.7 L510.0 31.5 L520.0 30.4 L530.0 29.3 L540.0 28.3 L550.0 27.4 L560.0 26.6 L570.0 25.9 L580.0 25.5 L590.0 25.2 L600.0 25.1 L610.0 25.1 L620.0 25.3 L630.0 25.7 L640.0 26.2 L650.0 26.7 L660.0 27.4 L670.0 28.1 L680.0 28.8 L690.0 29.5 L700.0 30.1 L710.0 30.7 L720.0 31.2 L730.0 31.7 L740.0 32.0 L750.0 32.2 L760.0 32.4 L770.0 32.4 L780.0 32.3 L790.0 32.2 L800.0 32.0 L810.0 31.7 L820.0 31.4 L830.0 31.1 L840.0 30.8 L850.0 30.5 L860.0 30.3 L870.0 30.0 L880.0 29.9 L890.0 29.8 L900.0 29.7 L910.0 29.8 L920.0 29.8 L930.0 29.9 L940.0 30.0 L950.0 30.0 L960.0 30.0 L970.0 30.0 L980.0 30.0 L990.0 30.0 L1000.0 30.0 L1010.0 30.0 L1020.0 30.0 L1030.0 30.0 L1040.0 30.0 L1050.0 30.0 L1060.0 30.0 L1070.0 30.0 L1080.0 30.0 L1090.0 30.0 L1100.0 30.0 L1110.0 30.0 L1120.0 30.0 L1130.0 30.0 L1140.0 30.0 L1150.0 30.0 L1160.0 30.0 L1170.0 30.0 L1180.0 30.0 L1190.0 30.0 L1200.0 30.0" stroke="#C25F3C" stroke-width="2.5" fill="none" stroke-linecap="round" opacity="0.85"></path>
<path d="M0 73.3 L10.0 85.5 L20.0 86.4 L30.0 86.8 L40.0 86.7 L50.0 86.2 L60.0 85.4 L70.0 84.1 L80.0 82.5 L90.0 80.7 L100.0 78.7 L110.0 76.5 L120.0 74.3 L130.0 72.1 L140.0 70.1 L150.0 68.1 L160.0 66.4 L170.0 65.0 L180.0 63.8 L190.0 63.0 L200.0 62.6 L210.0 62.5 L220.0 62.7 L230.0 63.3 L240.0 64.2 L250.0 65.4 L260.0 66.8 L270.0 68.4 L280.0 70.0 L290.0 71.8 L300.0 73.5 L310.0 75.2 L320.0 76.7 L330.0 78.1 L340.0 79.3 L350.0 80.3 L360.0 81.0 L370.0 81.4 L380.0 81.6 L390.0 81.5 L400.0 81.1 L410.0 80.5 L420.0 79.7 L430.0 78.7 L440.0 77.6 L450.0 76.3 L460.0 75.1 L470.0 73.8 L480.0 72.5 L490.0 71.4 L500.0 70.3 L510.0 69.5 L520.0 68.7 L530.0 68.2 L540.0 67.8 L550.0 67.7 L560.0 67.7 L570.0 67.9 L580.0 68.3 L590.0 68.9 L600.0 69.5 L610.0 70.2 L620.0 71.0 L630.0 71.9 L640.0 72.7 L650.0 73.5 L660.0 74.2 L670.0 74.9 L680.0 75.4 L690.0 75.9 L700.0 76.2 L710.0 76.4 L720.0 76.4 L730.0 76.4 L740.0 76.3 L750.0 76.0 L760.0 75.7 L770.0 75.4 L780.0 75.0 L790.0 74.5 L800.0 74.1 L810.0 73.8 L820.0 73.4 L830.0 73.1 L840.0 72.9 L850.0 72.7 L860.0 72.6 L870.0 72.6 L880.0 72.6 L890.0 72.7 L900.0 72.8 L910.0 72.9 L920.0 73.1 L930.0 73.2 L940.0 73.3 L950.0 73.3 L960.0 73.3 L970.0 73.3 L980.0 73.3 L990.0 73.3 L1000.0 73.3 L1010.0 73.3 L1020.0 73.3 L1030.0 73.3 L1040.0 73.3 L1050.0 73.3 L1060.0 73.3 L1070.0 73.3 L1080.0 73.3 L1090.0 73.3 L1100.0 73.3 L1110.0 73.3 L1120.0 73.3 L1130.0 73.3 L1140.0 73.3 L1150.0 73.3 L1160.0 73.3 L1170.0 73.3 L1180.0 73.3 L1190.0 73.3 L1200.0 73.3" stroke="#C25F3C" stroke-width="2.5" fill="none" stroke-linecap="round" opacity="0.78"></path>
<path d="M0 116.7 L10.0 129.4 L20.0 128.1 L30.0 126.4 L40.0 124.5 L50.0 122.3 L60.0 120.1 L70.0 117.7 L80.0 115.4 L90.0 113.2 L100.0 111.1 L110.0 109.3 L120.0 107.8 L130.0 106.5 L140.0 105.7 L150.0 105.2 L160.0 105.1 L170.0 105.3 L180.0 106.0 L190.0 106.9 L200.0 108.2 L210.0 109.6 L220.0 111.3 L230.0 113.1 L240.0 115.0 L250.0 116.8 L260.0 118.6 L270.0 120.3 L280.0 121.9 L290.0 123.2 L300.0 124.2 L310.0 125.0 L320.0 125.5 L330.0 125.7 L340.0 125.6 L350.0 125.2 L360.0 124.5 L370.0 123.6 L380.0 122.5 L390.0 121.3 L400.0 120.0 L410.0 118.6 L420.0 117.2 L430.0 115.8 L440.0 114.5 L450.0 113.3 L460.0 112.3 L470.0 111.5 L480.0 110.9 L490.0 110.5 L500.0 110.3 L510.0 110.3 L520.0 110.5 L530.0 111.0 L540.0 111.5 L550.0 112.3 L560.0 113.1 L570.0 114.0 L580.0 115.0 L590.0 115.9 L600.0 116.8 L610.0 117.7 L620.0 118.5 L630.0 119.2 L640.0 119.7 L650.0 120.1 L660.0 120.4 L670.0 120.5 L680.0 120.5 L690.0 120.3 L700.0 120.1 L710.0 119.7 L720.0 119.3 L730.0 118.8 L740.0 118.3 L750.0 117.8 L760.0 117.3 L770.0 116.8 L780.0 116.4 L790.0 116.0 L800.0 115.7 L810.0 115.5 L820.0 115.4 L830.0 115.3 L840.0 115.3 L850.0 115.4 L860.0 115.5 L870.0 115.7 L880.0 115.9 L890.0 116.1 L900.0 116.3 L910.0 116.4 L920.0 116.6 L930.0 116.6 L940.0 116.7 L950.0 116.7 L960.0 116.7 L970.0 116.7 L980.0 116.7 L990.0 116.7 L1000.0 116.7 L1010.0 116.7 L1020.0 116.7 L1030.0 116.7 L1040.0 116.7 L1050.0 116.7 L1060.0 116.7 L1070.0 116.7 L1080.0 116.7 L1090.0 116.7 L1100.0 116.7 L1110.0 116.7 L1120.0 116.7 L1130.0 116.7 L1140.0 116.7 L1150.0 116.7 L1160.0 116.7 L1170.0 116.7 L1180.0 116.7 L1190.0 116.7 L1200.0 116.7" stroke="#C25F3C" stroke-width="2.5" fill="none" stroke-linecap="round" opacity="0.71"></path>
<path d="M0 160.0 L10.0 163.6 L20.0 161.1 L30.0 158.7 L40.0 156.3 L50.0 154.1 L60.0 152.2 L70.0 150.5 L80.0 149.2 L90.0 148.3 L100.0 147.8 L110.0 147.7 L120.0 147.9 L130.0 148.6 L140.0 149.6 L150.0 150.9 L160.0 152.5 L170.0 154.3 L180.0 156.2 L190.0 158.2 L200.0 160.2 L210.0 162.1 L220.0 163.9 L230.0 165.6 L240.0 167.0 L250.0 168.1 L260.0 169.0 L270.0 169.5 L280.0 169.7 L290.0 169.6 L300.0 169.2 L310.0 168.5 L320.0 167.6 L330.0 166.4 L340.0 165.1 L350.0 163.6 L360.0 162.1 L370.0 160.5 L380.0 159.0 L390.0 157.6 L400.0 156.3 L410.0 155.2 L420.0 154.3 L430.0 153.6 L440.0 153.1 L450.0 152.9 L460.0 152.9 L470.0 153.1 L480.0 153.6 L490.0 154.2 L500.0 155.0 L510.0 156.0 L520.0 157.0 L530.0 158.1 L540.0 159.1 L550.0 160.2 L560.0 161.2 L570.0 162.1 L580.0 162.9 L590.0 163.5 L600.0 164.0 L610.0 164.4 L620.0 164.5 L630.0 164.6 L640.0 164.4 L650.0 164.1 L660.0 163.7 L670.0 163.2 L680.0 162.7 L690.0 162.0 L700.0 161.4 L710.0 160.8 L720.0 160.2 L730.0 159.6 L740.0 159.1 L750.0 158.7 L760.0 158.4 L770.0 158.1 L780.0 158.0 L790.0 158.0 L800.0 158.0 L810.0 158.1 L820.0 158.3 L830.0 158.5 L840.0 158.8 L850.0 159.0 L860.0 159.3 L870.0 159.5 L880.0 159.7 L890.0 159.9 L900.0 160.0 L910.0 160.1 L920.0 160.1 L930.0 160.0 L940.0 160.0 L950.0 160.0 L960.0 160.0 L970.0 160.0 L980.0 160.0 L990.0 160.0 L1000.0 160.0 L1010.0 160.0 L1020.0 160.0 L1030.0 160.0 L1040.0 160.0 L1050.0 160.0 L1060.0 160.0 L1070.0 160.0 L1080.0 160.0 L1090.0 160.0 L1100.0 160.0 L1110.0 160.0 L1120.0 160.0 L1130.0 160.0 L1140.0 160.0 L1150.0 160.0 L1160.0 160.0 L1170.0 160.0 L1180.0 160.0 L1190.0 160.0 L1200.0 160.0" stroke="#C25F3C" stroke-width="2.5" fill="none" stroke-linecap="round" opacity="0.64"></path>
<path d="M0 203.3 L10.0 195.1 L20.0 193.3 L30.0 191.9 L40.0 191.0 L50.0 190.4 L60.0 190.2 L70.0 190.5 L80.0 191.2 L90.0 192.3 L100.0 193.7 L110.0 195.3 L120.0 197.2 L130.0 199.3 L140.0 201.4 L150.0 203.5 L160.0 205.6 L170.0 207.5 L180.0 209.3 L190.0 210.8 L200.0 212.1 L210.0 213.0 L220.0 213.6 L230.0 213.8 L240.0 213.7 L250.0 213.3 L260.0 212.5 L270.0 211.5 L280.0 210.3 L290.0 208.8 L300.0 207.3 L310.0 205.6 L320.0 203.9 L330.0 202.3 L340.0 200.7 L350.0 199.3 L360.0 198.1 L370.0 197.1 L380.0 196.3 L390.0 195.7 L400.0 195.5 L410.0 195.5 L420.0 195.7 L430.0 196.2 L440.0 196.9 L450.0 197.8 L460.0 198.8 L470.0 200.0 L480.0 201.1 L490.0 202.4 L500.0 203.6 L510.0 204.7 L520.0 205.7 L530.0 206.6 L540.0 207.4 L550.0 208.0 L560.0 208.4 L570.0 208.6 L580.0 208.6 L590.0 208.5 L600.0 208.2 L610.0 207.7 L620.0 207.2 L630.0 206.5 L640.0 205.8 L650.0 205.0 L660.0 204.3 L670.0 203.5 L680.0 202.8 L690.0 202.2 L700.0 201.7 L710.0 201.2 L720.0 200.9 L730.0 200.7 L740.0 200.6 L750.0 200.6 L760.0 200.7 L770.0 200.9 L780.0 201.2 L790.0 201.5 L800.0 201.8 L810.0 202.2 L820.0 202.5 L830.0 202.9 L840.0 203.1 L850.0 203.4 L860.0 203.6 L870.0 203.7 L880.0 203.8 L890.0 203.8 L900.0 203.8 L910.0 203.7 L920.0 203.6 L930.0 203.4 L940.0 203.3 L950.0 203.3 L960.0 203.3 L970.0 203.3 L980.0 203.3 L990.0 203.3 L1000.0 203.3 L1010.0 203.3 L1020.0 203.3 L1030.0 203.3 L1040.0 203.3 L1050.0 203.3 L1060.0 203.3 L1070.0 203.3 L1080.0 203.3 L1090.0 203.3 L1100.0 203.3 L1110.0 203.3 L1120.0 203.3 L1130.0 203.3 L1140.0 203.3 L1150.0 203.3 L1160.0 203.3 L1170.0 203.3 L1180.0 203.3 L1190.0 203.3 L1200.0 203.3" stroke="#C25F3C" stroke-width="2.5" fill="none" stroke-linecap="round" opacity="0.57"></path>
<path d="M0 246.7 L10.0 232.8 L20.0 233.1 L30.0 233.8 L40.0 235.0 L50.0 236.4 L60.0 238.2 L70.0 240.2 L80.0 242.4 L90.0 244.6 L100.0 246.9 L110.0 249.1 L120.0 251.2 L130.0 253.0 L140.0 254.7 L150.0 256.0 L160.0 257.0 L170.0 257.6 L180.0 257.9 L190.0 257.8 L200.0 257.3 L210.0 256.6 L220.0 255.5 L230.0 254.1 L240.0 252.6 L250.0 250.9 L260.0 249.1 L270.0 247.3 L280.0 245.5 L290.0 243.9 L300.0 242.3 L310.0 241.0 L320.0 239.8 L330.0 239.0 L340.0 238.4 L350.0 238.1 L360.0 238.1 L370.0 238.3 L380.0 238.8 L390.0 239.6 L400.0 240.6 L410.0 241.7 L420.0 242.9 L430.0 244.2 L440.0 245.6 L450.0 246.9 L460.0 248.2 L470.0 249.3 L480.0 250.4 L490.0 251.2 L500.0 251.9 L510.0 252.4 L520.0 252.7 L530.0 252.7 L540.0 252.6 L550.0 252.2 L560.0 251.7 L570.0 251.1 L580.0 250.4 L590.0 249.5 L600.0 248.7 L610.0 247.8 L620.0 246.9 L630.0 246.1 L640.0 245.3 L650.0 244.6 L660.0 244.1 L670.0 243.7 L680.0 243.4 L690.0 243.2 L700.0 243.2 L710.0 243.3 L720.0 243.5 L730.0 243.8 L740.0 244.2 L750.0 244.6 L760.0 245.0 L770.0 245.5 L780.0 246.0 L790.0 246.4 L800.0 246.8 L810.0 247.1 L820.0 247.4 L830.0 247.5 L840.0 247.7 L850.0 247.7 L860.0 247.7 L870.0 247.6 L880.0 247.5 L890.0 247.4 L900.0 247.2 L910.0 247.0 L920.0 246.9 L930.0 246.7 L940.0 246.7 L950.0 246.7 L960.0 246.7 L970.0 246.7 L980.0 246.7 L990.0 246.7 L1000.0 246.7 L1010.0 246.7 L1020.0 246.7 L1030.0 246.7 L1040.0 246.7 L1050.0 246.7 L1060.0 246.7 L1070.0 246.7 L1080.0 246.7 L1090.0 246.7 L1100.0 246.7 L1110.0 246.7 L1120.0 246.7 L1130.0 246.7 L1140.0 246.7 L1150.0 246.7 L1160.0 246.7 L1170.0 246.7 L1180.0 246.7 L1190.0 246.7 L1200.0 246.7" stroke="#C25F3C" stroke-width="2.5" fill="none" stroke-linecap="round" opacity="0.50"></path>
<path d="M0 290.0 L10.0 281.0 L20.0 283.2 L30.0 285.4 L40.0 287.8 L50.0 290.2 L60.0 292.6 L70.0 294.8 L80.0 296.8 L90.0 298.5 L100.0 299.9 L110.0 301.0 L120.0 301.7 L130.0 302.0 L140.0 301.9 L150.0 301.4 L160.0 300.6 L170.0 299.4 L180.0 298.0 L190.0 296.3 L200.0 294.5 L210.0 292.6 L220.0 290.7 L230.0 288.8 L240.0 287.0 L250.0 285.3 L260.0 283.8 L270.0 282.6 L280.0 281.7 L290.0 281.0 L300.0 280.7 L310.0 280.6 L320.0 280.9 L330.0 281.5 L340.0 282.3 L350.0 283.3 L360.0 284.5 L370.0 285.9 L380.0 287.3 L390.0 288.8 L400.0 290.3 L410.0 291.7 L420.0 293.0 L430.0 294.1 L440.0 295.1 L450.0 295.8 L460.0 296.4 L470.0 296.7 L480.0 296.8 L490.0 296.6 L500.0 296.3 L510.0 295.8 L520.0 295.1 L530.0 294.2 L540.0 293.3 L550.0 292.3 L560.0 291.3 L570.0 290.3 L580.0 289.3 L590.0 288.4 L600.0 287.6 L610.0 287.0 L620.0 286.4 L630.0 286.1 L640.0 285.9 L650.0 285.8 L660.0 285.9 L670.0 286.1 L680.0 286.4 L690.0 286.8 L700.0 287.3 L710.0 287.9 L720.0 288.5 L730.0 289.1 L740.0 289.6 L750.0 290.1 L760.0 290.6 L770.0 291.0 L780.0 291.3 L790.0 291.5 L800.0 291.7 L810.0 291.7 L820.0 291.7 L830.0 291.6 L840.0 291.4 L850.0 291.2 L860.0 291.0 L870.0 290.8 L880.0 290.6 L890.0 290.4 L900.0 290.2 L910.0 290.1 L920.0 290.0 L930.0 290.0 L940.0 290.0 L950.0 290.0 L960.0 290.0 L970.0 290.0 L980.0 290.0 L990.0 290.0 L1000.0 290.0 L1010.0 290.0 L1020.0 290.0 L1030.0 290.0 L1040.0 290.0 L1050.0 290.0 L1060.0 290.0 L1070.0 290.0 L1080.0 290.0 L1090.0 290.0 L1100.0 290.0 L1110.0 290.0 L1120.0 290.0 L1130.0 290.0 L1140.0 290.0 L1150.0 290.0 L1160.0 290.0 L1170.0 290.0 L1180.0 290.0 L1190.0 290.0 L1200.0 290.0" stroke="#C25F3C" stroke-width="2.5" fill="none" stroke-linecap="round" opacity="0.43"></path></g>
<g><circle cx="520" cy="30.0" r="1.40" fill="#117C6F" opacity="0.00"></circle><circle cx="520" cy="73.3" r="1.40" fill="#117C6F" opacity="0.00"></circle><circle cx="520" cy="116.7" r="1.40" fill="#117C6F" opacity="0.00"></circle><circle cx="520" cy="160.0" r="1.40" fill="#117C6F" opacity="0.00"></circle><circle cx="520" cy="203.3" r="1.40" fill="#117C6F" opacity="0.00"></circle><circle cx="520" cy="246.7" r="1.40" fill="#117C6F" opacity="0.00"></circle><circle cx="546" cy="30.0" r="1.44" fill="#117C6F" opacity="0.03"></circle><circle cx="546" cy="73.3" r="1.44" fill="#117C6F" opacity="0.03"></circle><circle cx="546" cy="116.7" r="1.44" fill="#117C6F" opacity="0.03"></circle><circle cx="546" cy="160.0" r="1.44" fill="#117C6F" opacity="0.03"></circle><circle cx="546" cy="203.3" r="1.44" fill="#117C6F" opacity="0.03"></circle><circle cx="546" cy="246.7" r="1.44" fill="#117C6F" opacity="0.03"></circle><circle cx="572" cy="30.0" r="1.49" fill="#117C6F" opacity="0.07"></circle><circle cx="572" cy="73.3" r="1.49" fill="#117C6F" opacity="0.07"></circle><circle cx="572" cy="116.7" r="1.49" fill="#117C6F" opacity="0.07"></circle><circle cx="572" cy="160.0" r="1.49" fill="#117C6F" opacity="0.07"></circle><circle cx="572" cy="203.3" r="1.49" fill="#117C6F" opacity="0.07"></circle><circle cx="572" cy="246.7" r="1.49" fill="#117C6F" opacity="0.07"></circle><circle cx="598" cy="30.0" r="1.53" fill="#117C6F" opacity="0.10"></circle><circle cx="598" cy="73.3" r="1.53" fill="#117C6F" opacity="0.10"></circle><circle cx="598" cy="116.7" r="1.53" fill="#117C6F" opacity="0.10"></circle><circle cx="598" cy="160.0" r="1.53" fill="#117C6F" opacity="0.10"></circle><circle cx="598" cy="203.3" r="1.53" fill="#117C6F" opacity="0.10"></circle><circle cx="598" cy="246.7" r="1.53" fill="#117C6F" opacity="0.10"></circle><circle cx="624" cy="30.0" r="1.58" fill="#117C6F" opacity="0.13"></circle><circle cx="624" cy="73.3" r="1.58" fill="#117C6F" opacity="0.13"></circle><circle cx="624" cy="116.7" r="1.58" fill="#117C6F" opacity="0.13"></circle><circle cx="624" cy="160.0" r="1.58" fill="#117C6F" opacity="0.13"></circle><circle cx="624" cy="203.3" r="1.58" fill="#117C6F" opacity="0.13"></circle><circle cx="624" cy="246.7" r="1.58" fill="#117C6F" opacity="0.13"></circle><circle cx="650" cy="30.0" r="1.62" fill="#117C6F" opacity="0.16"></circle><circle cx="650" cy="73.3" r="1.62" fill="#117C6F" opacity="0.16"></circle><circle cx="650" cy="116.7" r="1.62" fill="#117C6F" opacity="0.16"></circle><circle cx="650" cy="160.0" r="1.62" fill="#117C6F" opacity="0.16"></circle><circle cx="650" cy="203.3" r="1.62" fill="#117C6F" opacity="0.16"></circle><circle cx="650" cy="246.7" r="1.62" fill="#117C6F" opacity="0.16"></circle><circle cx="676" cy="30.0" r="1.67" fill="#117C6F" opacity="0.20"></circle><circle cx="676" cy="73.3" r="1.67" fill="#117C6F" opacity="0.20"></circle><circle cx="676" cy="116.7" r="1.67" fill="#117C6F" opacity="0.20"></circle><circle cx="676" cy="160.0" r="1.67" fill="#117C6F" opacity="0.20"></circle><circle cx="676" cy="203.3" r="1.67" fill="#117C6F" opacity="0.20"></circle><circle cx="676" cy="246.7" r="1.67" fill="#117C6F" opacity="0.20"></circle><circle cx="702" cy="30.0" r="1.71" fill="#117C6F" opacity="0.23"></circle><circle cx="702" cy="73.3" r="1.71" fill="#117C6F" opacity="0.23"></circle><circle cx="702" cy="116.7" r="1.71" fill="#117C6F" opacity="0.23"></circle><circle cx="702" cy="160.0" r="1.71" fill="#117C6F" opacity="0.23"></circle><circle cx="702" cy="203.3" r="1.71" fill="#117C6F" opacity="0.23"></circle><circle cx="702" cy="246.7" r="1.71" fill="#117C6F" opacity="0.23"></circle><circle cx="728" cy="30.0" r="1.76" fill="#117C6F" opacity="0.26"></circle><circle cx="728" cy="73.3" r="1.76" fill="#117C6F" opacity="0.26"></circle><circle cx="728" cy="116.7" r="1.76" fill="#117C6F" opacity="0.26"></circle><circle cx="728" cy="160.0" r="1.76" fill="#117C6F" opacity="0.26"></circle><circle cx="728" cy="203.3" r="1.76" fill="#117C6F" opacity="0.26"></circle><circle cx="728" cy="246.7" r="1.76" fill="#117C6F" opacity="0.26"></circle><circle cx="754" cy="30.0" r="1.80" fill="#117C6F" opacity="0.29"></circle><circle cx="754" cy="73.3" r="1.80" fill="#117C6F" opacity="0.29"></circle><circle cx="754" cy="116.7" r="1.80" fill="#117C6F" opacity="0.29"></circle><circle cx="754" cy="160.0" r="1.80" fill="#117C6F" opacity="0.29"></circle><circle cx="754" cy="203.3" r="1.80" fill="#117C6F" opacity="0.29"></circle><circle cx="754" cy="246.7" r="1.80" fill="#117C6F" opacity="0.29"></circle><circle cx="780" cy="30.0" r="1.85" fill="#117C6F" opacity="0.33"></circle><circle cx="780" cy="73.3" r="1.85" fill="#117C6F" opacity="0.33"></circle><circle cx="780" cy="116.7" r="1.85" fill="#117C6F" opacity="0.33"></circle><circle cx="780" cy="160.0" r="1.85" fill="#117C6F" opacity="0.33"></circle><circle cx="780" cy="203.3" r="1.85" fill="#117C6F" opacity="0.33"></circle><circle cx="780" cy="246.7" r="1.85" fill="#117C6F" opacity="0.33"></circle><circle cx="806" cy="30.0" r="1.89" fill="#117C6F" opacity="0.36"></circle><circle cx="806" cy="73.3" r="1.89" fill="#117C6F" opacity="0.36"></circle><circle cx="806" cy="116.7" r="1.89" fill="#117C6F" opacity="0.36"></circle><circle cx="806" cy="160.0" r="1.89" fill="#117C6F" opacity="0.36"></circle><circle cx="806" cy="203.3" r="1.89" fill="#117C6F" opacity="0.36"></circle><circle cx="806" cy="246.7" r="1.89" fill="#117C6F" opacity="0.36"></circle><circle cx="832" cy="30.0" r="1.94" fill="#117C6F" opacity="0.39"></circle><circle cx="832" cy="73.3" r="1.94" fill="#117C6F" opacity="0.39"></circle><circle cx="832" cy="116.7" r="1.94" fill="#117C6F" opacity="0.39"></circle><circle cx="832" cy="160.0" r="1.94" fill="#117C6F" opacity="0.39"></circle><circle cx="832" cy="203.3" r="1.94" fill="#117C6F" opacity="0.39"></circle><circle cx="832" cy="246.7" r="1.94" fill="#117C6F" opacity="0.39"></circle><circle cx="858" cy="30.0" r="1.98" fill="#117C6F" opacity="0.42"></circle><circle cx="858" cy="73.3" r="1.98" fill="#117C6F" opacity="0.42"></circle><circle cx="858" cy="116.7" r="1.98" fill="#117C6F" opacity="0.42"></circle><circle cx="858" cy="160.0" r="1.98" fill="#117C6F" opacity="0.42"></circle><circle cx="858" cy="203.3" r="1.98" fill="#117C6F" opacity="0.42"></circle><circle cx="858" cy="246.7" r="1.98" fill="#117C6F" opacity="0.42"></circle><circle cx="884" cy="30.0" r="2.03" fill="#117C6F" opacity="0.46"></circle><circle cx="884" cy="73.3" r="2.03" fill="#117C6F" opacity="0.46"></circle><circle cx="884" cy="116.7" r="2.03" fill="#117C6F" opacity="0.46"></circle><circle cx="884" cy="160.0" r="2.03" fill="#117C6F" opacity="0.46"></circle><circle cx="884" cy="203.3" r="2.03" fill="#117C6F" opacity="0.46"></circle><circle cx="884" cy="246.7" r="2.03" fill="#117C6F" opacity="0.46"></circle><circle cx="910" cy="30.0" r="2.07" fill="#117C6F" opacity="0.49"></circle><circle cx="910" cy="73.3" r="2.07" fill="#117C6F" opacity="0.49"></circle><circle cx="910" cy="116.7" r="2.07" fill="#117C6F" opacity="0.49"></circle><circle cx="910" cy="160.0" r="2.07" fill="#117C6F" opacity="0.49"></circle><circle cx="910" cy="203.3" r="2.07" fill="#117C6F" opacity="0.49"></circle><circle cx="910" cy="246.7" r="2.07" fill="#117C6F" opacity="0.49"></circle><circle cx="936" cy="30.0" r="2.12" fill="#117C6F" opacity="0.52"></circle><circle cx="936" cy="73.3" r="2.12" fill="#117C6F" opacity="0.52"></circle><circle cx="936" cy="116.7" r="2.12" fill="#117C6F" opacity="0.52"></circle><circle cx="936" cy="160.0" r="2.12" fill="#117C6F" opacity="0.52"></circle><circle cx="936" cy="203.3" r="2.12" fill="#117C6F" opacity="0.52"></circle><circle cx="936" cy="246.7" r="2.12" fill="#117C6F" opacity="0.52"></circle><circle cx="962" cy="30.0" r="2.16" fill="#117C6F" opacity="0.55"></circle><circle cx="962" cy="73.3" r="2.16" fill="#117C6F" opacity="0.55"></circle><circle cx="962" cy="116.7" r="2.16" fill="#117C6F" opacity="0.55"></circle><circle cx="962" cy="160.0" r="2.16" fill="#117C6F" opacity="0.55"></circle><circle cx="962" cy="203.3" r="2.16" fill="#117C6F" opacity="0.55"></circle><circle cx="962" cy="246.7" r="2.16" fill="#117C6F" opacity="0.55"></circle><circle cx="988" cy="30.0" r="2.20" fill="#117C6F" opacity="0.58"></circle><circle cx="988" cy="73.3" r="2.20" fill="#117C6F" opacity="0.58"></circle><circle cx="988" cy="116.7" r="2.20" fill="#117C6F" opacity="0.58"></circle><circle cx="988" cy="160.0" r="2.20" fill="#117C6F" opacity="0.58"></circle><circle cx="988" cy="203.3" r="2.20" fill="#117C6F" opacity="0.58"></circle><circle cx="988" cy="246.7" r="2.20" fill="#117C6F" opacity="0.58"></circle><circle cx="1014" cy="30.0" r="2.25" fill="#117C6F" opacity="0.62"></circle><circle cx="1014" cy="73.3" r="2.25" fill="#117C6F" opacity="0.62"></circle><circle cx="1014" cy="116.7" r="2.25" fill="#117C6F" opacity="0.62"></circle><circle cx="1014" cy="160.0" r="2.25" fill="#117C6F" opacity="0.62"></circle><circle cx="1014" cy="203.3" r="2.25" fill="#117C6F" opacity="0.62"></circle><circle cx="1014" cy="246.7" r="2.25" fill="#117C6F" opacity="0.62"></circle><circle cx="1040" cy="30.0" r="2.29" fill="#117C6F" opacity="0.65"></circle><circle cx="1040" cy="73.3" r="2.29" fill="#117C6F" opacity="0.65"></circle><circle cx="1040" cy="116.7" r="2.29" fill="#117C6F" opacity="0.65"></circle><circle cx="1040" cy="160.0" r="2.29" fill="#117C6F" opacity="0.65"></circle><circle cx="1040" cy="203.3" r="2.29" fill="#117C6F" opacity="0.65"></circle><circle cx="1040" cy="246.7" r="2.29" fill="#117C6F" opacity="0.65"></circle><circle cx="1066" cy="30.0" r="2.34" fill="#117C6F" opacity="0.68"></circle><circle cx="1066" cy="73.3" r="2.34" fill="#117C6F" opacity="0.68"></circle><circle cx="1066" cy="116.7" r="2.34" fill="#117C6F" opacity="0.68"></circle><circle cx="1066" cy="160.0" r="2.34" fill="#117C6F" opacity="0.68"></circle><circle cx="1066" cy="203.3" r="2.34" fill="#117C6F" opacity="0.68"></circle><circle cx="1066" cy="246.7" r="2.34" fill="#117C6F" opacity="0.68"></circle><circle cx="1092" cy="30.0" r="2.38" fill="#117C6F" opacity="0.72"></circle><circle cx="1092" cy="73.3" r="2.38" fill="#117C6F" opacity="0.72"></circle><circle cx="1092" cy="116.7" r="2.38" fill="#117C6F" opacity="0.72"></circle><circle cx="1092" cy="160.0" r="2.38" fill="#117C6F" opacity="0.72"></circle><circle cx="1092" cy="203.3" r="2.38" fill="#117C6F" opacity="0.72"></circle><circle cx="1092" cy="246.7" r="2.38" fill="#117C6F" opacity="0.72"></circle><circle cx="1118" cy="30.0" r="2.43" fill="#117C6F" opacity="0.75"></circle><circle cx="1118" cy="73.3" r="2.43" fill="#117C6F" opacity="0.75"></circle><circle cx="1118" cy="116.7" r="2.43" fill="#117C6F" opacity="0.75"></circle><circle cx="1118" cy="160.0" r="2.43" fill="#117C6F" opacity="0.75"></circle><circle cx="1118" cy="203.3" r="2.43" fill="#117C6F" opacity="0.75"></circle><circle cx="1118" cy="246.7" r="2.43" fill="#117C6F" opacity="0.75"></circle><circle cx="1144" cy="30.0" r="2.47" fill="#117C6F" opacity="0.78"></circle><circle cx="1144" cy="73.3" r="2.47" fill="#117C6F" opacity="0.78"></circle><circle cx="1144" cy="116.7" r="2.47" fill="#117C6F" opacity="0.78"></circle><circle cx="1144" cy="160.0" r="2.47" fill="#117C6F" opacity="0.78"></circle><circle cx="1144" cy="203.3" r="2.47" fill="#117C6F" opacity="0.78"></circle><circle cx="1144" cy="246.7" r="2.47" fill="#117C6F" opacity="0.78"></circle><circle cx="1170" cy="30.0" r="2.50" fill="#117C6F" opacity="0.80"></circle><circle cx="1170" cy="73.3" r="2.50" fill="#117C6F" opacity="0.80"></circle><circle cx="1170" cy="116.7" r="2.50" fill="#117C6F" opacity="0.80"></circle><circle cx="1170" cy="160.0" r="2.50" fill="#117C6F" opacity="0.80"></circle><circle cx="1170" cy="203.3" r="2.50" fill="#117C6F" opacity="0.80"></circle><circle cx="1170" cy="246.7" r="2.50" fill="#117C6F" opacity="0.80"></circle></g>
</svg>