<svg width="240" height="140" viewBox="0 0 240 140" fill="none" xmlns="http://www.w3.org/2000/svg" aria-hidden="true">
  <g stroke="#C25F3C" stroke-width="2.5" stroke-linecap="round" fill="none">
    <path d="M0 18 q 30 -14 60 0 t 60 0 t 60 0 t 60 0" opacity="0.9"></path>
    <path d="M0 42 q 30 -14 60 0 t 60 0 t 60 0 t 60 0" opacity="0.62"></path>
    <path d="M0 66 q 30 -14 60 0 t 60 0 t 60 0 t 60 0" opacity="0.42"></path>
    <path d="M0 90 q 30 -14 60 0 t 60 0 t 60 0 t 60 0" opacity="0.28"></path>
    <path d="M0 114 q 30 -14 60 0 t 60 0 t 60 0 t 60 0" opacity="0.16"></path>
  </g>
</svg>